<svg width="164" height="76" viewBox="0 0 164 76" fill="none" xmlns="http://www.w3.org/2000/svg">
<path d="M39.848 53.0566V61.3668H54.6416V53.0566H61.1607V75.5394H54.6416V66.5487H39.848V75.5454H33.3289V53.0566H39.848Z" fill="#FF0032"/>
<path d="M83.8525 53.0566L95.4878 75.5394H88.7418L86.1031 70.4232H72.3543L69.7454 75.5394H63.5188L75.2199 53.0566H83.8525ZM74.7303 65.8622H83.7569L79.2615 56.9968L74.7303 65.8622Z" fill="#FF0032"/>
<path d="M103.762 58.4356V75.5454H97.8335V53.0566H107.935L114.711 69.874L121.486 53.0566H131.522V75.5394H125.003V58.2385L117.994 75.5394H110.729L103.762 58.4356Z" fill="#FF0032"/>
<path d="M154.764 53.0566C157.695 53.0566 159.85 53.7372 161.235 55.0924C162.614 56.4476 163.306 58.346 163.306 60.7817C163.306 63.3428 162.614 65.3308 161.235 66.7457C159.856 68.1606 157.701 68.865 154.764 68.865H142.704V75.5454H136.185V53.0566H154.764ZM156.722 60.525C156.722 59.7728 156.495 59.1579 156.035 58.6744C155.581 58.1908 154.817 57.946 153.755 57.946H142.71V63.9757H153.755C154.865 63.9757 155.635 63.7369 156.071 63.2533C156.507 62.7697 156.722 62.119 156.722 61.3011V60.525Z" fill="#FF0032"/>
<path d="M0.792969 64.4001C0.792969 62.2032 1.13923 60.3525 1.83771 58.8421C2.53022 57.3317 3.53318 56.1138 4.83463 55.1945C6.13608 54.2691 7.73005 53.6065 9.61059 53.2065C11.4851 52.8005 13.6224 52.6035 16.0104 52.6035C18.2073 52.6035 20.1834 52.7528 21.9385 53.0453C23.6997 53.3378 25.2041 53.8154 26.4518 54.4781C27.6995 55.1407 28.6965 56.0183 29.4308 57.1168C30.1711 58.2153 30.6248 59.5585 30.7979 61.1405H24.2489C24.0758 60.3943 23.7773 59.7854 23.3534 59.3137C22.9295 58.8421 22.3684 58.472 21.6759 58.1974C20.9774 57.9227 20.1595 57.7377 19.2162 57.6362C18.273 57.5347 17.1984 57.4869 16.0044 57.4869C14.7209 57.4869 13.5567 57.5705 12.5001 57.7317C11.4434 57.8929 10.5419 58.1974 9.77773 58.6332C9.01955 59.069 8.4226 59.6779 8.00471 60.448C7.58084 61.2241 7.37186 62.2211 7.37186 63.4449V65.2479C7.37186 66.4299 7.58083 67.397 7.99275 68.1612C8.40468 68.9253 8.98378 69.5223 9.73599 69.9641C10.4882 70.3999 11.3896 70.6984 12.4583 70.8656C13.5209 71.0268 14.7089 71.1103 16.0104 71.1103C18.3148 71.1103 20.1595 70.8954 21.5505 70.4715C22.9415 70.0417 23.8549 69.1701 24.2907 67.8567H30.8397C30.6427 69.3373 30.1711 70.591 29.4249 71.6178C28.6726 72.6506 27.6697 73.4923 26.41 74.1431C25.1504 74.7938 23.6459 75.2654 21.8967 75.5579C20.1475 75.8505 18.1894 75.9997 16.0163 75.9997C13.6283 75.9997 11.4911 75.8087 9.61059 75.4266C7.73005 75.0445 6.14205 74.4057 4.83463 73.5043C3.53318 72.6028 2.53022 71.4088 1.83771 69.9223C1.13923 68.4358 0.792969 66.5911 0.792969 64.4001Z" fill="#FF0032"/>
<path d="M37.5691 31.7044V26.5225H65.6577V31.7044H54.87V49.0053H48.321V31.7044H37.5691Z" fill="#FF0032"/>
<path d="M92.0805 26.5225V31.3104H74.8094V35.2505H87.9732V39.8116H74.8094V44.2114H92.2118V48.9993H68.2903V26.5225H92.0805Z" fill="#FF0032"/>
<path d="M94.2178 37.8659C94.2178 35.669 94.564 33.8183 95.2625 32.3079C95.955 30.7975 96.958 29.5797 98.2594 28.6603C99.5609 27.7349 101.155 27.0723 103.035 26.6723C104.916 26.2723 107.047 26.0693 109.441 26.0693C111.638 26.0693 113.614 26.2186 115.369 26.5111C117.13 26.8036 118.635 27.2812 119.883 27.9439C121.13 28.6066 122.127 29.4841 122.862 30.5826C123.602 31.6811 124.056 33.0243 124.229 34.6064H117.68C117.507 33.8601 117.208 33.2512 116.784 32.7795C116.36 32.3079 115.799 31.9378 115.107 31.6632C114.408 31.3886 113.59 31.2035 112.647 31.102C111.704 31.0005 110.629 30.9527 109.435 30.9527C108.152 30.9527 106.987 31.0363 105.931 31.1975C104.874 31.3587 103.973 31.6632 103.209 32.099C102.45 32.5348 101.853 33.1437 101.435 33.9138C101.012 34.6899 100.803 35.6869 100.803 36.9107V38.7137C100.803 39.8957 101.012 40.8629 101.424 41.627C101.835 42.3912 102.414 42.9881 103.167 43.4299C103.919 43.8657 104.82 44.1642 105.889 44.3314C106.952 44.4926 108.14 44.5762 109.441 44.5762C111.746 44.5762 113.59 44.3612 114.981 43.9374C116.372 43.5075 117.286 42.6359 117.721 41.3225H124.27C124.073 42.8031 123.602 44.0568 122.856 45.0836C122.103 46.1164 121.1 46.9582 119.841 47.6089C118.581 48.2596 117.077 48.7312 115.327 49.0238C113.578 49.3163 111.62 49.4655 109.447 49.4655C107.059 49.4655 104.922 49.2745 103.041 48.8924C101.161 48.5103 99.5728 47.8716 98.2654 46.9701C96.964 46.0686 95.961 44.8747 95.2685 43.3881C94.57 41.9016 94.2178 40.0569 94.2178 37.8659Z" fill="#FF0032"/>
<path d="M134.121 26.5225V34.8326H148.914V26.5225H155.434V49.0053H148.914V40.0145H134.121V49.0112H127.602V26.5225H134.121Z" fill="#FF0032"/>
<path d="M0.693604 5.18191V0H28.7822V5.18191H17.9945V22.4828H11.4455V5.18191H0.693604Z" fill="#FF0032"/>
<path d="M50.3216 0C53.014 0 55.0856 0.620874 56.5303 1.85665C57.9751 3.09243 58.6974 4.90132 58.6974 7.26542C58.6974 9.11013 58.2795 10.6146 57.4437 11.7787C56.608 12.9428 55.408 13.7727 53.8439 14.2741L59.4138 22.4888H52.0111L46.7993 14.7995H37.934V22.4888H31.4148V0H50.3216ZM52.1126 7.06841C52.1126 6.28635 51.8917 5.67144 51.444 5.22967C50.9962 4.78192 50.1783 4.56104 48.9843 4.56104H37.9399V10.131H48.9843C50.1604 10.131 50.9723 9.90413 51.426 9.44445C51.8798 8.99073 52.1126 8.36986 52.1126 7.5878V7.06841Z" fill="#FF0032"/>
<path d="M61.9093 0H68.4285V11.916C68.4285 13.1578 68.5897 14.1726 68.918 14.9666C69.2463 15.7606 69.7299 16.3875 70.3687 16.8412C71.0075 17.3009 71.8194 17.6113 72.7985 17.7904C73.7775 17.9636 74.9178 18.0531 76.2192 18.0531C77.5207 18.0531 78.661 17.9636 79.64 17.7904C80.6191 17.6173 81.431 17.3009 82.0817 16.8412C82.7325 16.3815 83.222 15.7606 83.5503 14.9666C83.8787 14.1726 84.0399 13.1578 84.0399 11.916V0H90.0695V12.2503C90.0695 14.1607 89.771 15.7905 89.174 17.1397C88.577 18.4889 87.6935 19.5874 86.5353 20.447C85.3712 21.3067 83.9264 21.9336 82.2011 22.3395C80.4758 22.7395 78.4819 22.9425 76.2192 22.9425C73.8969 22.9425 71.8433 22.7395 70.0583 22.3395C68.2792 21.9395 66.7808 21.3067 65.5748 20.447C64.3689 19.5874 63.4555 18.4889 62.8346 17.1397C62.2138 15.7905 61.9033 14.1607 61.9033 12.2503V0H61.9093Z" fill="#FF0032"/>
<path d="M118.289 0V4.78789H101.018V8.72805H114.182V13.2891H101.018V17.6889H118.421V22.4768H94.499V0H118.289Z" fill="#FF0032"/>
<path d="M26.1697 35.6109L16.7829 31.0202V26.5352L33.7451 35.1971V39.6514L16.8185 48.4146V44.066L25.8938 39.581H0.693115V35.6109H26.1697Z" fill="#FF0032"/>
<path d="M143.308 17.909H135.699L134.558 22.345H128.777L129.918 17.909H124.987L126.128 13.4731H131.059L132.171 9.13212H126.395L127.536 4.69616H133.317L134.558 0H140.339L139.097 4.69616H146.707L147.948 0H153.728L152.487 4.69616H158.039L156.898 9.13212H151.346L150.234 13.4731H156.373L155.232 17.909H149.093L147.948 22.345H142.167L143.308 17.909ZM136.844 13.4731H144.453L145.565 9.13212H137.952L136.844 13.4731Z" fill="#FF0032"/>
</svg>
